<svg width="108" height="55" viewBox="0 0 108 55" fill="none" xmlns="http://www.w3.org/2000/svg">
<g filter="url(#filter0_dd_307_7135)">
<rect x="6" y="15" width="96" height="34" rx="8" fill="url(#paint0_linear_307_7135)" shape-rendering="crispEdges"/>
<path d="M46.5572 26.164L47.4252 25.156C47.8079 25.3333 48.2092 25.548 48.6292 25.8C49.0492 26.052 49.4459 26.3087 49.8192 26.57C50.1925 26.822 50.4912 27.0647 50.7152 27.298L49.7772 28.432C49.5625 28.1987 49.2732 27.9467 48.9092 27.676C48.5545 27.396 48.1672 27.1253 47.7472 26.864C47.3365 26.5933 46.9399 26.36 46.5572 26.164ZM45.4372 32.184H52.7872V33.444H45.4372V32.184ZM44.4432 36.482H53.5992V37.742H44.4432V36.482ZM44.9332 28.208H53.2912V29.482H44.9332V28.208ZM48.3492 28.642H49.7212V37.042H48.3492V28.642ZM41.4052 26.248L42.1332 25.268C42.4412 25.38 42.7632 25.52 43.0992 25.688C43.4445 25.856 43.7665 26.0287 44.0652 26.206C44.3732 26.3833 44.6205 26.556 44.8072 26.724L44.0372 27.816C43.8505 27.648 43.6079 27.4707 43.3092 27.284C43.0199 27.088 42.7072 26.9013 42.3712 26.724C42.0445 26.5373 41.7225 26.3787 41.4052 26.248ZM40.5372 30.07L41.2232 29.048C41.5405 29.1507 41.8719 29.2767 42.2172 29.426C42.5625 29.5753 42.8892 29.734 43.1972 29.902C43.5145 30.0607 43.7759 30.2193 43.9812 30.378L43.2532 31.498C43.0572 31.3393 42.8052 31.1713 42.4972 30.994C42.1985 30.8167 41.8765 30.6487 41.5312 30.49C41.1952 30.322 40.8639 30.182 40.5372 30.07ZM41.0972 37.112C41.3492 36.7573 41.6292 36.3327 41.9372 35.838C42.2452 35.3433 42.5579 34.8207 42.8752 34.27C43.1925 33.71 43.4912 33.164 43.7712 32.632L44.7372 33.514C44.4945 33.9993 44.2285 34.508 43.9392 35.04C43.6592 35.5627 43.3699 36.076 43.0712 36.58C42.7819 37.084 42.4972 37.56 42.2172 38.008L41.0972 37.112ZM56.6828 26.08H59.5948V27.312H56.6828V26.08ZM54.4568 30.7H67.3928V31.974H54.4568V30.7ZM55.9828 26.08H57.2568V30.518C57.2568 31.0873 57.2335 31.7127 57.1868 32.394C57.1401 33.0753 57.0515 33.766 56.9208 34.466C56.7901 35.166 56.5988 35.8473 56.3468 36.51C56.1041 37.1633 55.7821 37.7513 55.3808 38.274C55.3248 38.1807 55.2361 38.0733 55.1148 37.952C54.9935 37.8307 54.8721 37.7093 54.7508 37.588C54.6295 37.476 54.5221 37.392 54.4288 37.336C54.7835 36.8507 55.0635 36.3233 55.2688 35.754C55.4835 35.1753 55.6375 34.5827 55.7308 33.976C55.8335 33.3693 55.8988 32.772 55.9268 32.184C55.9641 31.596 55.9828 31.0407 55.9828 30.518V26.08ZM58.9088 26.08H60.1968V36.65C60.1968 36.9767 60.1548 37.2333 60.0708 37.42C59.9868 37.6067 59.8421 37.7513 59.6368 37.854C59.4221 37.9567 59.1515 38.022 58.8248 38.05C58.4981 38.078 58.0968 38.092 57.6208 38.092C57.5928 37.924 57.5368 37.7233 57.4528 37.49C57.3688 37.2567 57.2848 37.0607 57.2008 36.902C57.5181 36.9113 57.8121 36.9207 58.0828 36.93C58.3628 36.93 58.5495 36.9253 58.6428 36.916C58.7455 36.9067 58.8155 36.8833 58.8528 36.846C58.8901 36.8087 58.9088 36.7433 58.9088 36.65V26.08ZM62.1848 26.08H65.1808V27.312H62.1848V26.08ZM61.4708 26.08H62.7588V30.56C62.7588 31.12 62.7355 31.736 62.6888 32.408C62.6515 33.08 62.5768 33.7613 62.4648 34.452C62.3528 35.1427 62.1848 35.8147 61.9608 36.468C61.7461 37.112 61.4568 37.7 61.0928 38.232C61.0275 38.148 60.9295 38.0407 60.7988 37.91C60.6775 37.7887 60.5515 37.672 60.4208 37.56C60.2901 37.4573 60.1828 37.378 60.0988 37.322C60.4161 36.8273 60.6635 36.3 60.8408 35.74C61.0275 35.1707 61.1628 34.5873 61.2468 33.99C61.3401 33.3833 61.4008 32.7907 61.4288 32.212C61.4568 31.624 61.4708 31.0687 61.4708 30.546V26.08ZM64.6488 26.08H65.9648V36.65C65.9648 36.9953 65.9228 37.266 65.8388 37.462C65.7548 37.658 65.6055 37.8073 65.3908 37.91C65.1761 38.022 64.9008 38.092 64.5648 38.12C64.2288 38.148 63.8135 38.162 63.3188 38.162C63.3001 38.0407 63.2675 37.9053 63.2208 37.756C63.1741 37.6067 63.1228 37.4527 63.0668 37.294C63.0108 37.1447 62.9501 37.0187 62.8848 36.916C63.2115 36.9253 63.5195 36.93 63.8088 36.93C64.0981 36.93 64.2895 36.93 64.3828 36.93C64.4855 36.9207 64.5555 36.8973 64.5928 36.86C64.6301 36.8133 64.6488 36.7387 64.6488 36.636V26.08Z" fill="#101828"/>
<path d="M94 9C98.4183 9 102 12.5817 102 17V26.1387C101.997 26.1237 101.328 22.172 96.999 22.1719L97.042 22.1514H60.5762C56.9446 22.1514 54.0002 19.2077 54 15.5762C54 11.9445 56.9445 9 60.5762 9H94Z" fill="url(#paint1_linear_307_7135)"/>
<path d="M69.9578 13.94H70.9778V15.96H72.9878V16.98H70.9778V19H69.9578V16.98H67.9478V15.96H69.9578V13.94ZM73.8435 13.16C74.0835 13.16 74.3168 13.14 74.5435 13.1C74.7701 13.06 74.9735 12.9933 75.1535 12.9C75.3401 12.8067 75.4968 12.6867 75.6235 12.54C75.7568 12.3933 75.8435 12.2133 75.8835 12H76.8135V19H75.5635V14.06H73.8435V13.16ZM79.9497 12H83.5697V13.02H80.7997L80.4397 14.8L80.4597 14.82C80.6131 14.6467 80.8064 14.5167 81.0397 14.43C81.2797 14.3367 81.5164 14.29 81.7497 14.29C82.0964 14.29 82.4064 14.35 82.6797 14.47C82.9531 14.5833 83.1831 14.7467 83.3697 14.96C83.5564 15.1667 83.6964 15.4133 83.7897 15.7C83.8897 15.9867 83.9397 16.2967 83.9397 16.63C83.9397 16.91 83.8931 17.2 83.7997 17.5C83.7131 17.7933 83.5697 18.0633 83.3697 18.31C83.1764 18.55 82.9264 18.75 82.6197 18.91C82.3131 19.0633 81.9464 19.14 81.5197 19.14C81.1797 19.14 80.8631 19.0933 80.5697 19C80.2831 18.9133 80.0297 18.78 79.8097 18.6C79.5897 18.42 79.4131 18.2 79.2797 17.94C79.1531 17.6733 79.0831 17.3633 79.0697 17.01H80.2097C80.2431 17.39 80.3731 17.6833 80.5997 17.89C80.8264 18.09 81.1264 18.19 81.4997 18.19C81.7397 18.19 81.9431 18.15 82.1097 18.07C82.2764 17.99 82.4097 17.88 82.5097 17.74C82.6164 17.6 82.6897 17.4367 82.7297 17.25C82.7764 17.0633 82.7997 16.8633 82.7997 16.65C82.7997 16.4567 82.7731 16.2733 82.7197 16.1C82.6664 15.92 82.5864 15.7633 82.4797 15.63C82.3731 15.4967 82.2331 15.39 82.0597 15.31C81.8931 15.23 81.6964 15.19 81.4697 15.19C81.2297 15.19 81.0031 15.2367 80.7897 15.33C80.5831 15.4167 80.4331 15.5833 80.3397 15.83H79.1997L79.9497 12ZM86.906 11.86C87.406 11.86 87.8126 11.9767 88.126 12.21C88.446 12.4367 88.6926 12.73 88.866 13.09C89.046 13.4433 89.166 13.8333 89.226 14.26C89.2926 14.6867 89.326 15.1 89.326 15.5C89.326 15.9 89.2926 16.3133 89.226 16.74C89.166 17.1667 89.046 17.56 88.866 17.92C88.6926 18.2733 88.446 18.5667 88.126 18.8C87.8126 19.0267 87.406 19.14 86.906 19.14C86.406 19.14 85.996 19.0267 85.676 18.8C85.3626 18.5667 85.116 18.2733 84.936 17.92C84.7626 17.56 84.6426 17.1667 84.576 16.74C84.516 16.3133 84.486 15.9 84.486 15.5C84.486 15.1 84.516 14.6867 84.576 14.26C84.6426 13.8333 84.7626 13.4433 84.936 13.09C85.116 12.73 85.3626 12.4367 85.676 12.21C85.996 11.9767 86.406 11.86 86.906 11.86ZM86.906 18.19C87.1526 18.19 87.3593 18.12 87.526 17.98C87.6926 17.8333 87.8226 17.64 87.916 17.4C88.016 17.1533 88.086 16.8667 88.126 16.54C88.166 16.2133 88.186 15.8667 88.186 15.5C88.186 15.1333 88.166 14.79 88.126 14.47C88.086 14.1433 88.016 13.8567 87.916 13.61C87.8226 13.3633 87.6926 13.17 87.526 13.03C87.3593 12.8833 87.1526 12.81 86.906 12.81C86.6526 12.81 86.4426 12.8833 86.276 13.03C86.116 13.17 85.986 13.3633 85.886 13.61C85.7926 13.8567 85.726 14.1433 85.686 14.47C85.646 14.79 85.626 15.1333 85.626 15.5C85.626 15.8667 85.646 16.2133 85.686 16.54C85.726 16.8667 85.7926 17.1533 85.886 17.4C85.986 17.64 86.116 17.8333 86.276 17.98C86.4426 18.12 86.6526 18.19 86.906 18.19ZM91.2522 13.85C91.2522 14.0367 91.2656 14.2133 91.2922 14.38C91.3189 14.54 91.3622 14.68 91.4222 14.8C91.4822 14.92 91.5589 15.0167 91.6522 15.09C91.7522 15.1567 91.8722 15.19 92.0122 15.19C92.1522 15.19 92.2722 15.1567 92.3722 15.09C92.4722 15.0167 92.5522 14.92 92.6122 14.8C92.6722 14.68 92.7156 14.54 92.7422 14.38C92.7756 14.2133 92.7922 14.0367 92.7922 13.85C92.7922 13.6833 92.7789 13.52 92.7522 13.36C92.7322 13.2 92.6922 13.0567 92.6322 12.93C92.5722 12.8033 92.4922 12.7033 92.3922 12.63C92.2922 12.55 92.1656 12.51 92.0122 12.51C91.8589 12.51 91.7322 12.55 91.6322 12.63C91.5322 12.7033 91.4522 12.8033 91.3922 12.93C91.3389 13.0567 91.3022 13.2 91.2822 13.36C91.2622 13.52 91.2522 13.6833 91.2522 13.85ZM92.0222 15.84C91.7222 15.84 91.4656 15.7867 91.2522 15.68C91.0389 15.5733 90.8656 15.43 90.7322 15.25C90.5989 15.07 90.5022 14.86 90.4422 14.62C90.3822 14.38 90.3522 14.1233 90.3522 13.85C90.3522 13.5833 90.3822 13.33 90.4422 13.09C90.5089 12.8433 90.6089 12.63 90.7422 12.45C90.8822 12.27 91.0556 12.1267 91.2622 12.02C91.4756 11.9133 91.7289 11.86 92.0222 11.86C92.3156 11.86 92.5656 11.9133 92.7722 12.02C92.9856 12.1267 93.1589 12.27 93.2922 12.45C93.4322 12.63 93.5322 12.8433 93.5922 13.09C93.6589 13.33 93.6922 13.5833 93.6922 13.85C93.6922 14.1233 93.6622 14.38 93.6022 14.62C93.5422 14.86 93.4456 15.07 93.3122 15.25C93.1789 15.43 93.0056 15.5733 92.7922 15.68C92.5789 15.7867 92.3222 15.84 92.0222 15.84ZM96.2722 17.15C96.2722 17.3367 96.2856 17.5133 96.3122 17.68C96.3389 17.84 96.3822 17.98 96.4422 18.1C96.5022 18.22 96.5789 18.3167 96.6722 18.39C96.7722 18.4567 96.8922 18.49 97.0322 18.49C97.1722 18.49 97.2922 18.4567 97.3922 18.39C97.4922 18.3167 97.5722 18.22 97.6322 18.1C97.6922 17.98 97.7356 17.84 97.7622 17.68C97.7956 17.5133 97.8122 17.3367 97.8122 17.15C97.8122 16.9833 97.7989 16.82 97.7722 16.66C97.7522 16.5 97.7122 16.3567 97.6522 16.23C97.5922 16.1033 97.5122 16.0033 97.4122 15.93C97.3122 15.85 97.1856 15.81 97.0322 15.81C96.8789 15.81 96.7522 15.85 96.6522 15.93C96.5522 16.0033 96.4722 16.1033 96.4122 16.23C96.3589 16.3567 96.3222 16.5 96.3022 16.66C96.2822 16.82 96.2722 16.9833 96.2722 17.15ZM97.0422 19.14C96.7422 19.14 96.4856 19.0867 96.2722 18.98C96.0589 18.8733 95.8856 18.73 95.7522 18.55C95.6189 18.37 95.5222 18.16 95.4622 17.92C95.4022 17.68 95.3722 17.4233 95.3722 17.15C95.3722 16.8833 95.4022 16.63 95.4622 16.39C95.5289 16.1433 95.6289 15.93 95.7622 15.75C95.9022 15.57 96.0756 15.4267 96.2822 15.32C96.4956 15.2133 96.7489 15.16 97.0422 15.16C97.3356 15.16 97.5856 15.2133 97.7922 15.32C98.0056 15.4267 98.1789 15.57 98.3122 15.75C98.4522 15.93 98.5522 16.1433 98.6122 16.39C98.6789 16.63 98.7122 16.8833 98.7122 17.15C98.7122 17.4233 98.6822 17.68 98.6222 17.92C98.5622 18.16 98.4656 18.37 98.3322 18.55C98.1989 18.73 98.0256 18.8733 97.8122 18.98C97.5989 19.0867 97.3422 19.14 97.0422 19.14ZM96.0222 11.76H96.7822L92.9122 19.24H92.1322L96.0222 11.76Z" fill="white"/>
<circle cx="61.5" cy="15.5" r="5.5" fill="#FEF584"/>
</g>
<defs>
<filter id="filter0_dd_307_7135" x="0" y="0" width="108" height="55" filterUnits="userSpaceOnUse" color-interpolation-filters="sRGB">
<feFlood flood-opacity="0" result="BackgroundImageFix"/>
<feColorMatrix in="SourceAlpha" type="matrix" values="0 0 0 0 0 0 0 0 0 0 0 0 0 0 0 0 0 0 127 0" result="hardAlpha"/>
<feOffset dy="2"/>
<feComposite in2="hardAlpha" operator="out"/>
<feColorMatrix type="matrix" values="0 0 0 0 0.63486 0 0 0 0 0.498818 0 0 0 0 0 0 0 0 1 0"/>
<feBlend mode="normal" in2="BackgroundImageFix" result="effect1_dropShadow_307_7135"/>
<feColorMatrix in="SourceAlpha" type="matrix" values="0 0 0 0 0 0 0 0 0 0 0 0 0 0 0 0 0 0 127 0" result="hardAlpha"/>
<feOffset/>
<feGaussianBlur stdDeviation="3"/>
<feComposite in2="hardAlpha" operator="out"/>
<feColorMatrix type="matrix" values="0 0 0 0 1 0 0 0 0 0.9 0 0 0 0 0 0 0 0 0.7 0"/>
<feBlend mode="normal" in2="effect1_dropShadow_307_7135" result="effect2_dropShadow_307_7135"/>
<feBlend mode="normal" in="SourceGraphic" in2="effect2_dropShadow_307_7135" result="shape"/>
</filter>
<linearGradient id="paint0_linear_307_7135" x1="17.3084" y1="2.07465" x2="45.6749" y2="54.8377" gradientUnits="userSpaceOnUse">
<stop stop-color="#F6FF92"/>
<stop offset="1" stop-color="#FDC700"/>
</linearGradient>
<linearGradient id="paint1_linear_307_7135" x1="64.9641" y1="6.02413" x2="97.074" y2="20.813" gradientUnits="userSpaceOnUse">
<stop stop-color="#FF0571"/>
<stop offset="1" stop-color="#E80055"/>
</linearGradient>
</defs>
</svg>
