<svg width="16" height="16" viewBox="0 0 16 16" fill="none" xmlns="http://www.w3.org/2000/svg">
<path d="M12.2432 3.75463C12.6328 4.14427 12.6328 4.77599 12.2432 5.16563L9.40869 8.00013L12.2432 10.8346C12.6328 11.2243 12.6328 11.856 12.2432 12.2456C11.8539 12.6349 11.223 12.6353 10.8332 12.2466L7.99869 9.42013L5.17869 12.2401C4.78657 12.6322 4.15081 12.6322 3.75869 12.2401C3.36657 11.848 3.36657 11.2123 3.75869 10.8201L6.57869 8.00013L3.75869 5.18013C3.36657 4.78801 3.36657 4.15225 3.75869 3.76013C4.15081 3.36801 4.78657 3.36801 5.17869 3.76013L7.99869 6.58013L10.8332 3.75363C11.223 3.36494 11.8539 3.36538 12.2432 3.75463Z" fill="#8A8CA6"/>
</svg>
