<svg width="32" height="32" viewBox="0 0 32 32" fill="none" xmlns="http://www.w3.org/2000/svg">
<rect width="32" height="32" rx="16" fill="#F04248" fill-opacity="0.1"/>
<path d="M16 17.4L18.9 20.3C19.0833 20.4833 19.3167 20.575 19.6 20.575C19.8833 20.575 20.1167 20.4833 20.3 20.3C20.4833 20.1167 20.575 19.8833 20.575 19.6C20.575 19.3167 20.4833 19.0833 20.3 18.9L17.4 16L20.3 13.1C20.4833 12.9167 20.575 12.6833 20.575 12.4C20.575 12.1167 20.4833 11.8833 20.3 11.7C20.1167 11.5167 19.8833 11.425 19.6 11.425C19.3167 11.425 19.0833 11.5167 18.9 11.7L16 14.6L13.1 11.7C12.9167 11.5167 12.6833 11.425 12.4 11.425C12.1167 11.425 11.8833 11.5167 11.7 11.7C11.5167 11.8833 11.425 12.1167 11.425 12.4C11.425 12.6833 11.5167 12.9167 11.7 13.1L14.6 16L11.7 18.9C11.5167 19.0833 11.425 19.3167 11.425 19.6C11.425 19.8833 11.5167 20.1167 11.7 20.3C11.8833 20.4833 12.1167 20.575 12.4 20.575C12.6833 20.575 12.9167 20.4833 13.1 20.3L16 17.4ZM16 26C14.6167 26 13.3167 25.7373 12.1 25.212C10.8833 24.6867 9.825 23.9743 8.925 23.075C8.025 22.1757 7.31267 21.1173 6.788 19.9C6.26333 18.6827 6.00067 17.3827 6 16C5.99933 14.6173 6.262 13.3173 6.788 12.1C7.314 10.8827 8.02633 9.82433 8.925 8.925C9.82367 8.02567 10.882 7.31333 12.1 6.788C13.318 6.26267 14.618 6 16 6C17.382 6 18.682 6.26267 19.9 6.788C21.118 7.31333 22.1763 8.02567 23.075 8.925C23.9737 9.82433 24.6863 10.8827 25.213 12.1C25.7397 13.3173 26.002 14.6173 26 16C25.998 17.3827 25.7353 18.6827 25.212 19.9C24.6887 21.1173 23.9763 22.1757 23.075 23.075C22.1737 23.9743 21.1153 24.687 19.9 25.213C18.6847 25.739 17.3847 26.0013 16 26Z" fill="#F04248"/>
</svg>
