<svg width="32" height="32" viewBox="0 0 32 32" fill="none" xmlns="http://www.w3.org/2000/svg">
<rect width="32" height="32" rx="16" fill="#00DF80" fill-opacity="0.1"/>
<path d="M16 6C21.5228 6 26 10.4772 26 16C26 21.5228 21.5228 26 16 26C10.4772 26 6 21.5228 6 16C6 10.4772 10.4772 6 16 6ZM21.4883 12.293C21.0977 11.9026 20.4647 11.9025 20.0742 12.293L14.7812 17.5859L12.4883 15.293C12.0977 14.9026 11.4647 14.9025 11.0742 15.293C10.684 15.6835 10.6839 16.3166 11.0742 16.707L14.0742 19.707C14.4647 20.0975 15.0977 20.0973 15.4883 19.707L21.4883 13.707C21.8788 13.3165 21.8788 12.6835 21.4883 12.293Z" fill="#00DF80"/>
</svg>
