<svg width="161" height="35" viewBox="0 0 161 35" fill="none" xmlns="http://www.w3.org/2000/svg">
<g filter="url(#filter0_dd_103_1414)">
<path d="M17.186 5.97376C17.186 7.31639 16.4343 8.54599 15.2393 9.15806L9.82305 11.9323C8.62806 12.5443 7.87634 13.7739 7.87634 15.1166V23.4479C8.91618 22.8875 10.0572 22.2738 11.1983 21.6611V13.7392C11.3757 13.6668 20.3813 8.90434 24.8648 6.53074V9.38514C24.8648 10.7278 24.1131 11.9574 22.9181 12.5694L17.5018 15.3436C16.3068 15.9557 15.5551 17.1853 15.5551 18.5279V27.0605C17.5356 26.0821 19.9179 24.9007 22.09 23.8043V20.6053L18.4459 22.4347V19.9056C18.4459 18.5723 19.1873 17.3496 20.3695 16.7332L26.4468 13.5645V24.3654C26.4468 25.7371 25.6625 26.988 24.4279 27.5857L15.5551 31.8806L11.1983 29.1987C11.1983 29.1987 11.2009 29.1974 11.2025 29.1967H11.1983V26.6979L7.87634 28.4692L3.51953 25.7874C3.51953 25.7874 3.52212 25.786 3.52372 25.7853H3.51953V10.3278C3.69352 10.2573 12.7017 5.49342 17.186 3.11936V5.97376Z" fill="url(#paint0_linear_103_1414)"/>
</g>
<path d="M148.153 14.6883V24.2411C148.153 25.5298 147.109 26.5745 145.82 26.5745H144.902V8.42546H148.153L154.309 20.4182V8.42546H157.481V24.2411C157.481 25.5298 156.436 26.5745 155.148 26.5745H154.309L148.153 14.6883Z" fill="white"/>
<path d="M138.723 8.42546H142.108V24.2411C142.108 25.5298 141.063 26.5745 139.774 26.5745H138.723V8.42546Z" fill="white"/>
<path d="M133.059 23.8028H128.181L127.945 24.7865C127.693 25.8352 126.755 26.5745 125.676 26.5745H124.291L128.954 8.42546H132.419L136.896 26.5745H135.554C134.468 26.5745 133.525 25.8245 133.281 24.7658L133.059 23.8028ZM128.821 21.1111H132.446L130.767 13.7023H130.58L128.821 21.1111Z" fill="white"/>
<path d="M118.219 23.4297C118.734 23.4297 119.151 23.2787 119.471 22.9766C119.791 22.6568 120.004 22.2748 120.111 21.8307V18.8192H116.787V18.3937C116.787 17.0538 117.873 15.9676 119.213 15.9676H123.176V22.7368C123.176 25.0287 121.123 26.5745 119.471 26.5745C118.013 26.5745 117.305 26.5745 115.847 26.5745C115.136 26.5745 114.461 26.4412 113.821 26.1747C113.182 25.8904 112.622 25.5084 112.142 25.0287C111.663 24.549 111.281 23.9894 110.996 23.3498C110.73 22.7101 110.597 22.0261 110.597 21.2977V13.7289C110.597 13.0005 110.73 12.3164 110.996 11.6768C111.281 11.0194 111.663 10.4509 112.142 9.97119C112.622 9.49148 113.182 9.11837 113.821 8.85187C114.461 8.5676 115.136 8.42546 115.847 8.42546H118.139C118.832 8.42546 119.471 8.54983 120.058 8.79857C120.644 9.04731 121.15 9.39376 121.577 9.83794C122.021 10.2643 122.376 10.7707 122.643 11.357C122.909 11.9433 123.078 12.5741 123.149 13.2492H119.871C119.747 12.7873 119.551 12.3964 119.285 12.0766C119.036 11.7568 118.645 11.5969 118.112 11.5969H115.873C115.571 11.5969 115.287 11.6591 115.021 11.7834C114.772 11.89 114.559 12.0499 114.381 12.2631C114.203 12.4763 114.061 12.7251 113.955 13.0094C113.866 13.2759 113.821 13.569 113.821 13.8888V21.1111C113.821 21.4309 113.866 21.733 113.955 22.0172C114.061 22.2837 114.203 22.5236 114.381 22.7368C114.559 22.95 114.772 23.1188 115.021 23.2431C115.287 23.3675 115.571 23.4297 115.873 23.4297H118.219Z" fill="white"/>
<path d="M92.1649 19.2456V26.5745H88.7803V8.42546H96.5622C97.2551 8.42546 97.9036 8.55871 98.5077 8.82522C99.1118 9.07396 99.627 9.42041 100.053 9.86459C100.498 10.3088 100.844 10.8329 101.093 11.437C101.359 12.041 101.493 12.6807 101.493 13.3558V14.1553C101.493 14.8305 101.359 15.4701 101.093 16.0742C100.844 16.6605 100.498 17.1846 100.053 17.6465C99.627 18.0907 99.1118 18.4372 98.5077 18.6859C97.9036 18.9346 97.2551 19.059 96.5622 19.059H95.8615L102.477 26.5745H99.0791C98.3648 26.5745 97.6899 26.2473 97.2474 25.6865L92.1649 19.2456ZM93.3316 11.5969C92.6872 11.5969 92.1649 12.1192 92.1649 12.7635V15.8876H96.0292C96.7932 15.8876 97.3529 15.7011 97.7082 15.3279C98.0635 14.9548 98.2412 14.4307 98.2412 13.7556C98.2412 13.116 98.0635 12.6007 97.7082 12.2098C97.3529 11.8012 96.7932 11.5969 96.0292 11.5969H93.3316Z" fill="white"/>
<path d="M77.5556 23.5097H86.5901V24.2411C86.5901 25.5298 85.5454 26.5745 84.2568 26.5745H74.1177V8.42546H86.5901V9.15694C86.5901 10.4456 85.5454 11.4903 84.2568 11.4903H78.7223C78.0779 11.4903 77.5556 12.0126 77.5556 12.6569V15.9676H86.5901V16.6724C86.5901 17.961 85.5454 19.0057 84.2568 19.0057H78.7223C78.0779 19.0057 77.5556 19.5281 77.5556 20.1724V23.5097Z" fill="white"/>
<path d="M72.1217 14.3419C72.1217 14.9282 72.0062 15.4967 71.7752 16.0475C71.5443 16.5983 71.2333 17.078 70.8425 17.4866C71.3755 17.8775 71.7575 18.3572 71.9884 18.9258C72.2194 19.4765 72.3349 20.054 72.3349 20.658V21.7774C72.3349 22.5236 72.2283 23.1987 72.0151 23.8028C71.8019 24.4069 71.4999 24.9132 71.109 25.3219C70.7359 25.7305 70.2828 26.0415 69.7498 26.2547C69.2346 26.4679 68.6571 26.5745 68.0175 26.5745H59.7559V8.42546H67.7777C68.4173 8.42546 69.0036 8.53206 69.5366 8.74527C70.0696 8.95847 70.5227 9.26051 70.8958 9.65138C71.2867 10.0423 71.5887 10.5131 71.8019 11.0639C72.0151 11.6146 72.1217 12.2187 72.1217 12.8761V14.3419ZM62.9006 15.9676H67.218C67.449 15.9676 67.6711 15.9143 67.8843 15.8077C68.0975 15.7011 68.284 15.5589 68.4439 15.3812C68.6216 15.2036 68.7549 14.9993 68.8437 14.7683C68.9325 14.5195 68.9769 14.2619 68.9769 13.9954V13.7289C68.9769 13.4446 68.9325 13.187 68.8437 12.956C68.7549 12.7251 68.6216 12.5208 68.4439 12.3431C68.284 12.1477 68.0975 11.9966 67.8843 11.89C67.6711 11.7834 67.449 11.7301 67.218 11.7301H62.9006V15.9676ZM69.2168 21.0312C69.2168 20.7647 69.1635 20.5159 69.0569 20.2849C68.9681 20.0362 68.8437 19.823 68.6838 19.6453C68.5239 19.4677 68.3284 19.3255 68.0975 19.2189C67.8843 19.1123 67.6622 19.059 67.4312 19.059H62.9006V23.2165H67.4312C67.6622 23.2165 67.8843 23.1632 68.0975 23.0566C68.3284 22.95 68.5239 22.8079 68.6838 22.6302C68.8437 22.4525 68.9681 22.2482 69.0569 22.0172C69.1635 21.7685 69.2168 21.502 69.2168 21.2177V21.0312Z" fill="white"/>
<path d="M50.3324 18.3128L45.7485 8.42546H49.1865L51.9848 14.2086H52.1447C52.3579 13.7467 52.5799 13.2759 52.8109 12.7961C53.0419 12.3164 53.2817 11.8278 53.5305 11.3304L54.9163 8.42546H58.3276L53.5838 18.3395V24.2411C53.5838 25.5298 52.5391 26.5745 51.2505 26.5745H50.3324V18.3128Z" fill="white"/>
<path d="M40.3206 23.4297C40.8359 23.4297 41.4079 23.1677 41.6388 22.8657C41.8876 22.5459 41.9996 21.0437 41.9996 20.5149H45.3576C45.3576 21.2936 45.1177 23.1099 44.8512 23.6962C44.5847 24.2647 44.2294 24.7622 43.7852 25.1886C43.3588 25.615 42.8435 25.9526 42.2395 26.2014C41.6531 26.4501 41.0224 26.5745 40.3473 26.5745H38.0553C37.3446 26.5745 36.6695 26.4412 36.0299 26.1747C35.3903 25.8904 34.8306 25.5084 34.3509 25.0287C33.8712 24.549 33.4892 23.9894 33.2049 23.3498C32.9384 22.7101 32.8052 22.0261 32.8052 21.2977V13.7289C32.8052 13.0005 32.9384 12.3164 33.2049 11.6768C33.4892 11.0194 33.8712 10.4509 34.3509 9.97119C34.8306 9.49148 35.3903 9.11837 36.0299 8.85187C36.6695 8.5676 37.3446 8.42546 38.0553 8.42546H40.3473C41.0402 8.42546 41.6798 8.54983 42.2661 8.79857C42.8524 9.04731 43.3588 9.39376 43.7852 9.83794C44.2294 10.2643 44.5847 10.7707 44.8512 11.357C45.1177 11.9433 45.289 14.0369 45.289 14.5997H41.9996C41.9996 14.124 42.0383 12.7504 41.532 12.0994C41.2833 11.7796 40.8536 11.5969 40.3206 11.5969H38.082C37.4601 11.5969 36.9627 11.819 36.5895 12.2631C36.2342 12.7073 36.0565 13.2492 36.0565 13.8888V21.1111C36.0565 21.7507 36.2342 22.3015 36.5895 22.7634C36.9627 23.2076 37.4601 23.4297 38.082 23.4297H40.3206Z" fill="white"/>
<defs>
<filter id="filter0_dd_103_1414" x="2.35286" y="1.95269" width="25.2606" height="31.6779" filterUnits="userSpaceOnUse" color-interpolation-filters="sRGB">
<feFlood flood-opacity="0" result="BackgroundImageFix"/>
<feColorMatrix in="SourceAlpha" type="matrix" values="0 0 0 0 0 0 0 0 0 0 0 0 0 0 0 0 0 0 127 0" result="hardAlpha"/>
<feOffset dy="0.583333"/>
<feGaussianBlur stdDeviation="0.583333"/>
<feComposite in2="hardAlpha" operator="out"/>
<feColorMatrix type="matrix" values="0 0 0 0 0.91634 0 0 0 0 0.999643 0 0 0 0 0 0 0 0 0.4 0"/>
<feBlend mode="normal" in2="BackgroundImageFix" result="effect1_dropShadow_103_1414"/>
<feColorMatrix in="SourceAlpha" type="matrix" values="0 0 0 0 0 0 0 0 0 0 0 0 0 0 0 0 0 0 127 0" result="hardAlpha"/>
<feOffset/>
<feGaussianBlur stdDeviation="0.583333"/>
<feComposite in2="hardAlpha" operator="out"/>
<feColorMatrix type="matrix" values="0 0 0 0 1 0 0 0 0 0.583333 0 0 0 0 0 0 0 0 0.6 0"/>
<feBlend mode="normal" in2="effect1_dropShadow_103_1414" result="effect2_dropShadow_103_1414"/>
<feBlend mode="normal" in="SourceGraphic" in2="effect2_dropShadow_103_1414" result="shape"/>
</filter>
<linearGradient id="paint0_linear_103_1414" x1="10.7024" y1="6.69955" x2="21.5119" y2="28.3615" gradientUnits="userSpaceOnUse">
<stop stop-color="#F6FF92"/>
<stop offset="1" stop-color="#FDC700"/>
</linearGradient>
</defs>
</svg>
