<svg width="22" height="22" viewBox="0 0 22 22" fill="none" xmlns="http://www.w3.org/2000/svg">
<path d="M16.4999 11.9148H11.9166V16.4981C11.9166 16.7413 11.82 16.9744 11.6481 17.1463C11.4762 17.3182 11.243 17.4148 10.9999 17.4148C10.7568 17.4148 10.5236 17.3182 10.3517 17.1463C10.1798 16.9744 10.0833 16.7413 10.0833 16.4981V11.9148H5.49992C5.2568 11.9148 5.02365 11.8182 4.85174 11.6463C4.67983 11.4744 4.58325 11.2413 4.58325 10.9981C4.58325 10.755 4.67983 10.5219 4.85174 10.35C5.02365 10.1781 5.2568 10.0815 5.49992 10.0815H10.0833V5.49815C10.0833 5.25503 10.1798 5.02188 10.3517 4.84997C10.5236 4.67806 10.7568 4.58148 10.9999 4.58148C11.243 4.58148 11.4762 4.67806 11.6481 4.84997C11.82 5.02188 11.9166 5.25503 11.9166 5.49815V10.0815H16.4999C16.743 10.0815 16.9762 10.1781 17.1481 10.35C17.32 10.5219 17.4166 10.755 17.4166 10.9981C17.4166 11.2413 17.32 11.4744 17.1481 11.6463C16.9762 11.8182 16.743 11.9148 16.4999 11.9148Z" fill="#0F182F"/>
</svg>
