<svg width="32" height="32" viewBox="0 0 32 32" fill="none" xmlns="http://www.w3.org/2000/svg">
<rect width="32" height="32" rx="16" fill="#FDC700" fill-opacity="0.1"/>
<path d="M16.713 20.713C16.9043 20.521 17 20.2833 17 20C17 19.7167 16.904 19.4793 16.712 19.288C16.52 19.0967 16.2827 19.0007 16 19C15.7173 18.9993 15.48 19.0953 15.288 19.288C15.096 19.4807 15 19.718 15 20C15 20.282 15.096 20.5197 15.288 20.713C15.48 20.9063 15.7173 21.002 16 21C16.2827 20.998 16.5203 20.903 16.713 20.713ZM16.713 16.712C16.9043 16.5207 17 16.2833 17 16V12C17 11.7167 16.904 11.4793 16.712 11.288C16.52 11.0967 16.2827 11.0007 16 11C15.7173 10.9993 15.48 11.0953 15.288 11.288C15.096 11.4807 15 11.718 15 12V16C15 16.2833 15.096 16.521 15.288 16.713C15.48 16.905 15.7173 17.0007 16 17C16.2827 16.9993 16.5203 16.9033 16.713 16.712ZM16 26C14.6167 26 13.3167 25.7373 12.1 25.212C10.8833 24.6867 9.825 23.9743 8.925 23.075C8.025 22.1757 7.31267 21.1173 6.788 19.9C6.26333 18.6827 6.00067 17.3827 6 16C5.99933 14.6173 6.262 13.3173 6.788 12.1C7.314 10.8827 8.02633 9.82433 8.925 8.925C9.82367 8.02567 10.882 7.31333 12.1 6.788C13.318 6.26267 14.618 6 16 6C17.382 6 18.682 6.26267 19.9 6.788C21.118 7.31333 22.1763 8.02567 23.075 8.925C23.9737 9.82433 24.6863 10.8827 25.213 12.1C25.7397 13.3173 26.002 14.6173 26 16C25.998 17.3827 25.7353 18.6827 25.212 19.9C24.6887 21.1173 23.9763 22.1757 23.075 23.075C22.1737 23.9743 21.1153 24.687 19.9 25.213C18.6847 25.739 17.3847 26.0013 16 26Z" fill="#FDC700"/>
</svg>
