<svg width="18" height="18" viewBox="0 0 18 18" fill="none" xmlns="http://www.w3.org/2000/svg">
<g clip-path="url(#clip0_24_2856)">
<path d="M15.2761 0.380015C15.3416 0.247148 15.5311 0.247148 15.5967 0.380015L16.1303 1.46134C16.1564 1.5141 16.2067 1.55067 16.2649 1.55913L17.4582 1.73253C17.6049 1.75383 17.6634 1.93403 17.5573 2.03745L16.6938 2.87914C16.6517 2.92021 16.6325 2.97938 16.6424 3.03737L16.8463 4.22586C16.8713 4.37189 16.718 4.48326 16.5869 4.41431L15.5196 3.85318C15.4675 3.8258 15.4053 3.8258 15.3532 3.85318L14.2858 4.41431C14.1547 4.48326 14.0014 4.37189 14.0265 4.22586L14.2303 3.03737C14.2403 2.97938 14.221 2.92021 14.1789 2.87914L13.3154 2.03745C13.2093 1.93402 13.2679 1.75383 13.4145 1.73253L14.6078 1.55913C14.666 1.55067 14.7164 1.5141 14.7424 1.46134L15.2761 0.380015Z" fill="#FDC700"/>
<path fill-rule="evenodd" clip-rule="evenodd" d="M0.41887 9.31057C-0.0217776 10.0738 0.23818 11.0498 1.0014 11.4904L11.1445 17.3466C11.9078 17.7872 12.883 17.5244 13.3236 16.7611L14.4061 14.8863C14.4646 14.785 14.4882 14.6674 14.4732 14.5514C14.4582 14.4354 14.4054 14.3276 14.323 14.2447C14.0702 13.9898 13.9082 13.6588 13.8621 13.3028C13.816 12.9468 13.8882 12.5855 14.0677 12.2746C14.2472 11.9637 14.524 11.7205 14.8554 11.5825C15.1867 11.4444 15.5543 11.4192 15.9015 11.5107C16.0145 11.5406 16.1343 11.5324 16.2422 11.4874C16.3501 11.4425 16.4403 11.3632 16.4986 11.2619L17.5811 9.38699C18.0217 8.62376 17.7618 7.64777 16.9986 7.20712L6.85542 1.35098C6.09219 0.910335 5.11698 1.1732 4.67633 1.93642L3.596 3.80761C3.53738 3.90944 3.5141 4.0278 3.52979 4.14425C3.54549 4.26069 3.59928 4.36866 3.68278 4.45133C3.94016 4.70563 4.10597 5.03807 4.15428 5.39664C4.20259 5.75522 4.13066 6.11969 3.94976 6.43303C3.76885 6.74637 3.48917 6.9909 3.15448 7.12835C2.81979 7.2658 2.44898 7.28842 2.10007 7.19267C1.98673 7.16169 1.86632 7.1691 1.75763 7.21373C1.64894 7.25835 1.55807 7.3377 1.4992 7.43938L0.41887 9.31057ZM5.55573 10.976L12.8255 9.02811C12.9913 8.97851 13.1312 8.86627 13.2156 8.71521C13.3 8.56414 13.3222 8.38614 13.2775 8.21897C13.2328 8.05181 13.1247 7.90863 12.9762 7.81983C12.8277 7.73103 12.6504 7.7036 12.482 7.74335L5.21226 9.69127C5.12563 9.71172 5.04399 9.74934 4.97217 9.80191C4.90034 9.85448 4.8398 9.92093 4.79412 9.99732C4.74844 10.0737 4.71856 10.1585 4.70624 10.2467C4.69393 10.3348 4.69943 10.4245 4.72241 10.5105C4.7454 10.5965 4.78541 10.677 4.84008 10.7473C4.89474 10.8175 4.96294 10.8761 5.04065 10.9195C5.11835 10.9629 5.20398 10.9902 5.29246 11C5.38093 11.0097 5.47046 11.0015 5.55573 10.976ZM7.3184 5.91987C7.45954 5.6754 7.69202 5.49701 7.96469 5.42395C8.23736 5.35089 8.52788 5.38914 8.77235 5.53028C9.01682 5.67143 9.1952 5.90391 9.26827 6.17657C9.34133 6.44924 9.30308 6.73977 9.16193 6.98423C9.02079 7.2287 8.78831 7.40709 8.51565 7.48015C8.24298 7.55321 7.95245 7.51496 7.70798 7.37382C7.46351 7.23268 7.28513 7.0002 7.21207 6.72753C7.13901 6.45486 7.17725 6.16434 7.3184 5.91987ZM8.87674 11.7357C9.01788 11.4912 9.25036 11.3128 9.52303 11.2398C9.7957 11.1667 10.0862 11.2049 10.3307 11.3461C10.5752 11.4872 10.7535 11.7197 10.8266 11.9924C10.8997 12.265 10.8614 12.5556 10.7203 12.8C10.5791 13.0445 10.3467 13.2229 10.074 13.296C9.80132 13.369 9.51079 13.3308 9.26632 13.1896C9.02186 13.0485 8.84347 12.816 8.77041 12.5433C8.69735 12.2707 8.73559 11.9801 8.87674 11.7357Z" fill="#8A8CA6"/>
</g>
<defs>
<clipPath id="clip0_24_2856">
<rect width="18" height="18" fill="white"/>
</clipPath>
</defs>
</svg>
