<svg width="18" height="18" viewBox="0 0 18 18" fill="none" xmlns="http://www.w3.org/2000/svg">
<g clip-path="url(#clip0_188_1900)">
<path d="M8.76025 2.64653C10.2358 2.64653 11.432 2.64687 12.4028 2.71587L13.3276 3.61723C13.3862 3.67446 13.4128 3.75721 13.3989 3.83794L13.1147 5.49419C13.0802 5.69738 13.2935 5.85246 13.4761 5.75688L14.9634 4.97466C15.036 4.9365 15.1232 4.9365 15.1958 4.97466L16.6167 5.72173C16.6228 5.75448 16.6306 5.7871 16.6362 5.82036C16.7809 6.68366 16.7808 7.78251 16.7808 9.15239V9.29008C16.7808 10.6253 16.7812 11.5497 16.6313 12.2383C16.561 12.5921 16.4215 12.9289 16.2222 13.2295C16.0244 13.5231 15.7727 13.7701 15.4731 14.0098C14.801 14.5471 13.9595 14.7846 12.897 14.8985C11.8464 15.0116 10.4965 15.0118 8.76025 15.0118H8.7251C7.93371 15.0118 7.32831 15.279 6.6958 15.6905C6.43958 15.8561 6.18989 16.0378 5.91943 16.2364L5.69189 16.4014C5.33592 16.66 4.94648 16.9338 4.50732 17.1856C4.42199 17.2344 4.32538 17.26 4.22705 17.2598C4.12851 17.2596 4.03105 17.234 3.9458 17.1846C3.86061 17.1352 3.78987 17.0639 3.74072 16.9786C3.69155 16.8932 3.66646 16.7958 3.6665 16.6973V14.7608C3.00777 14.6184 2.44993 14.3885 1.97705 14.0108C1.67728 13.7702 1.42415 13.5241 1.22705 13.2295C1.02751 12.9289 0.888455 12.5921 0.817871 12.2383C0.668004 11.5497 0.668457 10.6253 0.668457 9.29008V9.15239C0.668457 7.78251 0.668355 6.68389 0.812988 5.82133C0.96512 4.91604 1.28759 4.19908 1.97705 3.64751C2.64846 3.11023 3.48973 2.87276 4.55225 2.75883C5.60284 2.64568 6.95278 2.64653 8.68896 2.64653H8.76025ZM6.85107 8.26665C6.70201 8.26665 6.55902 8.32628 6.45361 8.43169C6.34833 8.53707 6.28857 8.68017 6.28857 8.82915C6.28868 8.97808 6.3483 9.12129 6.45361 9.22661C6.559 9.33189 6.7021 9.39067 6.85107 9.39067H10.5981C10.7471 9.39067 10.8902 9.33189 10.9956 9.22661C11.1009 9.12129 11.1605 8.97808 11.1606 8.82915C11.1606 8.68017 11.1009 8.53708 10.9956 8.43169C10.8902 8.32628 10.7472 8.26665 10.5981 8.26665H6.85107Z" fill="#FDC700"/>
<path d="M15.0717 0.720689C15.1396 0.583155 15.3357 0.583155 15.4036 0.72069L15.956 1.84C15.9829 1.89462 16.035 1.93247 16.0953 1.94123L17.3306 2.12072C17.4823 2.14278 17.5429 2.3293 17.4331 2.43635L16.5393 3.30762C16.4957 3.35013 16.4758 3.41138 16.4861 3.47141L16.6971 4.70165C16.723 4.85282 16.5643 4.9681 16.4286 4.89673L15.3237 4.31588C15.2698 4.28754 15.2054 4.28754 15.1515 4.31588L14.0467 4.89673C13.9109 4.9681 13.7523 4.85282 13.7782 4.70165L13.9892 3.47141C13.9995 3.41138 13.9796 3.35013 13.936 3.30762L13.0422 2.43635C12.9323 2.3293 12.9929 2.14278 13.1447 2.12072L14.38 1.94123C14.4402 1.93247 14.4923 1.89462 14.5193 1.84L15.0717 0.720689Z" fill="#FDC700"/>
</g>
<defs>
<clipPath id="clip0_188_1900">
<rect width="18" height="18" fill="white"/>
</clipPath>
</defs>
</svg>
