<svg width="18" height="18" viewBox="0 0 18 18" fill="none" xmlns="http://www.w3.org/2000/svg">
<rect x="1.31128" y="1.29269" width="6.86304" height="6.86304" rx="2" fill="#FDC700"/>
<rect x="1.31128" y="9.84427" width="6.86304" height="6.86304" rx="2" fill="#FDC700"/>
<rect x="9.82544" y="9.84427" width="6.86304" height="6.86304" rx="2" fill="#FDC700"/>
<path d="M12.9882 1.06912C13.0982 0.846142 13.4162 0.846143 13.5262 1.06912L14.4218 2.88377C14.4655 2.97231 14.55 3.03368 14.6477 3.04788L16.6503 3.33887C16.8963 3.37463 16.9946 3.67702 16.8165 3.85058L15.3674 5.26309C15.2967 5.33201 15.2645 5.43131 15.2812 5.52863L15.6233 7.52313C15.6653 7.7682 15.4081 7.95509 15.188 7.83938L13.3968 6.89771C13.3094 6.85176 13.205 6.85176 13.1176 6.89771L11.3264 7.83938C11.1063 7.95509 10.8491 7.7682 10.8911 7.52313L11.2332 5.52863C11.2499 5.43131 11.2176 5.33201 11.1469 5.26309L9.69786 3.85058C9.5198 3.67702 9.61806 3.37463 9.86412 3.33887L11.8667 3.04788C11.9644 3.03368 12.0489 2.97231 12.0926 2.88377L12.9882 1.06912Z" fill="#FDC700"/>
</svg>
