<svg width="18" height="18" viewBox="0 0 18 18" fill="none" xmlns="http://www.w3.org/2000/svg">
<path d="M15.4802 1.22468C15.5457 1.09181 15.7352 1.09181 15.8008 1.22468L16.3344 2.306C16.3605 2.35877 16.4108 2.39534 16.469 2.4038L17.6623 2.57719C17.809 2.5985 17.8675 2.77869 17.7614 2.88211L16.8979 3.72381C16.8558 3.76487 16.8366 3.82405 16.8465 3.88204L17.0504 5.07053C17.0754 5.21656 16.9221 5.32792 16.791 5.25898L15.7237 4.69785C15.6716 4.67047 15.6094 4.67047 15.5573 4.69785L14.49 5.25898C14.3588 5.32792 14.2055 5.21656 14.2306 5.07053L14.4344 3.88204C14.4444 3.82405 14.4251 3.76487 14.383 3.72381L13.5195 2.88211C13.4134 2.77869 13.472 2.5985 13.6186 2.57719L14.8119 2.4038C14.8701 2.39534 14.9205 2.35877 14.9465 2.306L15.4802 1.22468Z" fill="#FDC700"/>
<path d="M10.9592 1.39159C10.7044 1.25338 10.3503 1.10653 9.98462 1.12694C9.78303 1.13826 9.53751 1.20432 9.32935 1.39354C9.11991 1.58412 9.02589 1.82836 8.99536 2.04784V2.05174C8.98643 2.1183 8.98389 2.17726 8.98267 2.21581C8.98087 2.27232 8.98196 2.2668 8.98071 2.29491C8.97205 2.49005 8.93985 3.02387 8.83911 3.62401C8.73493 4.24445 8.57132 4.84667 8.34009 5.23241C8.17924 5.50056 7.89187 5.77318 7.53149 6.02733C7.17899 6.27584 6.80188 6.47442 6.51587 6.60936C5.99615 6.85456 5.60767 7.38441 5.60767 8.01561V15.375C5.6077 15.7727 5.76595 16.1543 6.04712 16.4355C6.32832 16.7167 6.71001 16.8749 7.10767 16.875H13.4778C13.8044 16.8751 14.1225 16.7682 14.3831 16.5713C14.6436 16.3742 14.8332 16.0975 14.9221 15.7832L16.9358 8.65135C16.9986 8.42841 17.009 8.19341 16.9661 7.9658C16.9231 7.7382 16.8275 7.52353 16.6877 7.33885C16.5479 7.15414 16.3669 7.00449 16.1594 6.90135C15.952 6.79825 15.7231 6.74411 15.4915 6.74412H12.428L12.469 6.60838C12.6187 6.1089 12.8053 5.5032 12.845 4.86327C12.8761 4.35336 12.8564 3.58697 12.512 2.92381L12.4387 2.79295C12.0915 2.21354 11.4978 1.68382 10.9592 1.39159Z" fill="#8A8CA6"/>
<rect x="1.00806" y="7.22797" width="3.73254" height="9.647" rx="1" fill="#FDC700"/>
</svg>
