<svg width="18" height="18" viewBox="0 0 18 18" fill="none" xmlns="http://www.w3.org/2000/svg">
<path d="M12.1504 8.13965C11.7976 9.27564 9.10059 17.0537 9.10059 17.0537L5.91797 8.13965H12.1504ZM7.28418 16.0586L1.06836 8.33008C1.01795 8.26895 0.970338 8.20517 0.925781 8.13965L4.81445 8.1377L7.28418 16.0586ZM17.0742 8.14062C17.0297 8.20608 16.982 8.26998 16.9316 8.33105L10.7754 15.9863L13.2129 8.13965L17.0742 8.14062ZM7.03027 2.13477L4.81445 6.87891L0.62793 6.88086C0.690221 6.65091 0.792016 6.4334 0.928711 6.23828L0.932617 6.2334L3.26855 2.99609C3.44926 2.73755 3.68811 2.5246 3.96582 2.375C4.24358 2.2254 4.55279 2.14337 4.86816 2.13477H7.03027ZM13.1328 2.13477V2.13867C13.4481 2.14728 13.7574 2.22935 14.0352 2.37891C14.3129 2.52851 14.5517 2.74141 14.7324 3L17.0684 6.23438L17.0723 6.23926C17.2084 6.43408 17.31 6.65145 17.3721 6.88086L13.2129 6.87891L11.0049 2.13477H13.1328ZM12.0254 6.87891H6.04297L8.25977 2.13477H9.81738L12.0254 6.87891Z" fill="#FDC700"/>
<path d="M12.0254 6.87891H6.04297L8.25977 2.13477H9.81738L12.0254 6.87891Z" fill="#FDC700"/>
<path d="M7.28418 16.0586L1.06836 8.33008C1.0441 8.30067 1.02293 8.26882 1 8.23828V8.13867L4.81445 8.1377L7.28418 16.0586ZM17.0742 8.14062C17.0297 8.20608 16.982 8.26998 16.9316 8.33105L10.7754 15.9863L13.2129 8.13965L17.0742 8.14062Z" fill="#FDC700"/>
</svg>
