<svg width="16" height="16" viewBox="0 0 16 16" fill="none" xmlns="http://www.w3.org/2000/svg">
<g clip-path="url(#clip0_319_7584)">
<path d="M14.7348 6.30208C14.8414 6.22135 15 6.29688 15 6.42448V11.75C15 12.4401 14.4121 13 13.6875 13H2.3125C1.58789 13 1 12.4401 1 11.75V6.42708C1 6.29688 1.15586 6.22396 1.26523 6.30469C1.87773 6.75781 2.68984 7.33333 5.47891 9.26302C6.05586 9.66406 7.0293 10.5078 8 10.5026C8.97617 10.5104 9.96875 9.64844 10.5238 9.26302C13.3129 7.33333 14.1223 6.75521 14.7348 6.30208ZM8 9.66667C8.63438 9.67708 9.54766 8.90625 10.007 8.58854C13.6355 6.08073 13.9117 5.86198 14.7484 5.23698C14.907 5.11979 15 4.9375 15 4.74479V4.25C15 3.5599 14.4121 3 13.6875 3H2.3125C1.58789 3 1 3.5599 1 4.25V4.74479C1 4.9375 1.09297 5.11719 1.25156 5.23698C2.08828 5.85937 2.36445 6.08073 5.99297 8.58854C6.45234 8.90625 7.36562 9.67708 8 9.66667Z" fill="#8A8CA6"/>
</g>
<defs>
<clipPath id="clip0_319_7584">
<rect width="16" height="16" fill="white"/>
</clipPath>
</defs>
</svg>
