<svg width="16" height="16" viewBox="0 0 16 16" fill="none" xmlns="http://www.w3.org/2000/svg">
<g clip-path="url(#clip0_317_7288)">
<path d="M4.21191 3.91231C5.33586 3.29341 6.6273 2.94063 8.00098 2.94063C11.3338 2.9409 14.1796 5.01445 15.333 7.94063C14.7362 9.455 13.6851 10.739 12.3486 11.6272L14.4502 13.6193L13.8994 14.1994L1.43457 2.38203L1.98535 1.80196L4.21191 3.91231ZM4.98145 6.52559C4.77955 6.95513 4.66705 7.43487 4.66699 7.94063C4.66699 9.78063 6.16098 11.2746 8.00098 11.2746C8.56998 11.2745 9.10547 11.1299 9.57422 10.8781L11.085 12.3107C10.1377 12.7151 9.09605 12.9405 8.00098 12.9406C4.66764 12.9406 1.82033 10.8673 0.666992 7.94063C1.17125 6.66122 1.99915 5.54485 3.0498 4.69356L4.98145 6.52559ZM8.00098 4.60762C7.16292 4.60762 6.39642 4.91754 5.81055 5.42891L6.78711 6.35371C7.12349 6.09601 7.5433 5.94063 8.00098 5.94063C9.10721 5.94098 10.0008 6.83436 10.001 7.94063C10.001 8.35992 9.86916 8.74673 9.64941 9.06758L10.625 9.99239C11.0681 9.42652 11.333 8.71457 11.333 7.94063C11.3328 6.10102 9.84055 4.60797 8.00098 4.60762Z" fill="white"/>
</g>
<defs>
<clipPath id="clip0_317_7288">
<rect width="16" height="16" fill="white"/>
</clipPath>
</defs>
</svg>
