<svg width="16" height="16" viewBox="0 0 16 16" fill="none" xmlns="http://www.w3.org/2000/svg">
<path d="M4.00008 14.6667H12.0001C12.7334 14.6667 13.3334 14.0667 13.3334 13.3333V7.33333C13.3334 6.6 12.7334 6 12.0001 6H11.3334V4.66666C11.3334 2.82666 9.84008 1.33333 8.00008 1.33333C6.16008 1.33333 4.66675 2.82666 4.66675 4.66666V6H4.00008C3.26675 6 2.66675 6.6 2.66675 7.33333V13.3333C2.66675 14.0667 3.26675 14.6667 4.00008 14.6667ZM6.00008 4.66666C6.00008 3.56666 6.90008 2.66666 8.00008 2.66666C9.10008 2.66666 10.0001 3.56666 10.0001 4.66666V6H6.00008V4.66666Z" fill="#8A8CA6"/>
</svg>
