<svg width="16" height="16" viewBox="0 0 16 16" fill="none" xmlns="http://www.w3.org/2000/svg">
<path d="M14.3526 3.05884H1.6468C1.45959 3.05884 1.28004 3.13321 1.14766 3.26558C1.01529 3.39796 0.940918 3.5775 0.940918 3.76472V6.58822H1.57127C2.27432 6.58822 2.92655 7.06893 3.03949 7.7628C3.07402 7.96544 3.06389 8.17316 3.0098 8.37147C2.95571 8.56978 2.85897 8.75388 2.72634 8.91092C2.59371 9.06795 2.42838 9.19413 2.24192 9.28064C2.05545 9.36714 1.85235 9.41188 1.6468 9.41173H0.940918V12.2352C0.940918 12.4225 1.01529 12.602 1.14766 12.7344C1.28004 12.8668 1.45959 12.9411 1.6468 12.9411H14.3526C14.5398 12.9411 14.7193 12.8668 14.8517 12.7344C14.9841 12.602 15.0585 12.4225 15.0585 12.2352V9.41173H14.3526C14.147 9.41188 13.9439 9.36714 13.7575 9.28064C13.571 9.19413 13.4057 9.06795 13.273 8.91092C13.1404 8.75388 13.0437 8.56978 12.9896 8.37147C12.9355 8.17316 12.9254 7.96544 12.9599 7.7628C13.0728 7.06893 13.7251 6.58822 14.4281 6.58822H15.0585V3.76472C15.0585 3.5775 14.9841 3.39796 14.8517 3.26558C14.7193 3.13321 14.5398 3.05884 14.3526 3.05884ZM7.29381 11.5294H5.88206V10.1176H7.29381V11.5294ZM7.29381 8.70586H5.88206V7.2941H7.29381V8.70586ZM7.29381 5.88235H5.88206V4.47059H7.29381V5.88235Z" fill="#8A8CA6"/>
</svg>
