<svg width="20" height="17" viewBox="0 0 20 17" fill="none" xmlns="http://www.w3.org/2000/svg">
<g clip-path="url(#clip0_324_8046)">
<path d="M19.864 0.719231C19.6692 0.261538 19.2147 0 18.6952 0C18.1757 0 17.916 0.130769 17.851 0.130769C17.7211 0.130769 5.7731 4.77308 0.902967 6.8C0.448422 6.99615 0.188681 7.25769 0.0588113 7.51923C-0.135994 7.97692 0.188681 8.5 0.513357 8.63077C1.74712 9.15385 4.27959 9.93846 5.05881 10.1346C5.31855 10.9846 6.22764 14.0577 6.68219 15.3654C6.81206 15.6923 7.13673 15.8885 7.52634 15.8885C7.91595 15.8885 7.65621 15.8885 7.65621 15.8885C7.78608 15.8885 7.85102 15.8231 7.98089 15.7577C7.98089 15.6923 8.11076 15.6269 8.11076 15.4962L8.3705 11.8346C8.82504 12.2269 9.53933 12.75 10.3186 13.2731C11.8121 14.45 13.6302 15.7577 14.6692 16.5423C15.0588 16.8038 15.3835 16.9346 15.7082 16.9346C16.4224 16.9346 16.877 16.2808 17.0069 15.7577C17.851 12.4885 19.0848 6.21154 19.7991 2.48462L19.9289 1.7C20.0588 1.17692 19.9289 0.915385 19.864 0.653846V0.719231ZM7.46141 10.9846L7.2666 14.2538C6.68219 12.4885 5.90297 9.74231 5.90297 9.67692L15.2536 3.53077C15.2536 3.53077 15.903 3.07308 16.1627 3.00769C16.4874 2.94231 16.5523 3.00769 16.4874 3.13846C16.2926 3.46538 15.1887 4.38077 15.1887 4.38077L7.72115 10.5923C7.59128 10.6577 7.52634 10.7885 7.52634 10.9192L7.46141 10.9846Z" fill="white"/>
</g>
<defs>
<clipPath id="clip0_324_8046">
<rect width="20" height="17" fill="white"/>
</clipPath>
</defs>
</svg>
