<svg width="20" height="20" viewBox="0 0 20 20" fill="none" xmlns="http://www.w3.org/2000/svg">
<g clip-path="url(#clip0_324_8047)">
<path d="M18.852 8.76133H9.96979V12.4471H15.7704C14.8036 14.6828 12.568 16.3142 9.96979 16.3142C6.64653 16.3142 3.6858 13.4743 3.6858 10.0302C3.6858 6.5861 6.52568 3.74622 9.96979 3.74622C12.3867 3.74622 13.1722 4.41087 14.3202 5.49849L17.281 3.26284C15.4683 1.26888 12.8701 0.0604197 9.96979 0.0604197C4.4713 -3.23728e-06 0 4.4713 0 9.96978C0 15.4683 4.4713 19.9396 9.96979 19.9396C15.4683 19.9396 19.9396 15.4683 19.9396 9.96978V8.76133H18.852Z" fill="white"/>
</g>
<defs>
<clipPath id="clip0_324_8047">
<rect width="20" height="20" fill="white"/>
</clipPath>
</defs>
</svg>
